<svg width="130" height="37" viewBox="0 0 130 37" fill="none" xmlns="http://www.w3.org/2000/svg">
<path d="M4.00256 7.89581H12.3146L17.1152 15.6933L21.9527 7.89581H30.2279V31.4303H22.1737V19.9962L17.1029 27.7282H16.9924L11.9586 19.9962V31.4303H4.00256V7.89581Z" fill="#1D1D1B"/>
<path d="M32.5483 21.951V7.89581H40.8236V22.0165C40.8236 24.3754 42.1496 25.4129 44.0035 25.4129C45.8574 25.4129 47.1834 24.441 47.1834 22.1148V7.89581H55.4218V21.82C55.4218 29.0168 50.7685 31.9109 43.9298 31.9109C37.0911 31.9109 32.5483 28.9841 32.5483 21.9619V21.951Z" fill="#1D1D1B"/>
<path d="M57.1284 26.1119L67.1102 14.077H57.4722V7.89581H78.1479V13.2143L68.1661 25.2491H78.1479V31.4413H57.1284V26.1228V26.1119Z" fill="#1D1D1B"/>
<path d="M79.9651 7.89581H99.3639V14.088H88.0561V16.7745H98.529V22.4206H88.0561V25.2491H99.5481V31.4413H79.9651V7.89581ZM89.9101 1.78011L97.9274 3.29811L92.4515 6.76003H86.7424L89.9223 1.78011H89.9101Z" fill="#1D1D1B"/>
<path d="M100.69 19.9962V19.3955C100.69 12.3297 105.982 7.39345 113.238 7.39345C120.494 7.39345 125.786 12.2642 125.786 19.33V19.9306C125.786 26.9965 120.457 31.9327 113.201 31.9327C105.945 31.9327 100.69 27.062 100.69 19.9962ZM117.51 19.9306V19.4283C117.51 15.9336 115.853 13.8805 113.201 13.8805C110.549 13.8805 108.928 15.9008 108.928 19.3955V19.8979C108.928 23.3926 110.586 25.4457 113.238 25.4457C115.89 25.4457 117.51 23.4253 117.51 19.9306Z" fill="#1D1D1B"/>
</svg>
